<svg xmlns="http://www.w3.org/2000/svg" xmlns:xlink="http://www.w3.org/1999/xlink" width="1024" height="1024" viewBox="0 0 1024 1024">
  <defs>
    <clipPath id="clip-_1024x">
      <rect width="1024" height="1024"/>
    </clipPath>
  </defs>
  <g id="_1024x" data-name="1024x" clip-path="url(#clip-_1024x)">
    <path id="路径_1" data-name="路径 1" d="M844.749,150.834C693.681,159,545.6,105.816,433,2.944,320.4,105.816,172.32,159,21.251,150.834A594.816,594.816,0,0,0,3,297.556C3,569.548,185.7,798.145,433,862.944c247.3-64.8,430-293.348,430-565.388A595.9,595.9,0,0,0,844.749,150.834Z" transform="translate(79.5 79.556)" fill="#4caf50"/>
    <path id="路径_1_-_轮廓" data-name="路径 1 - 轮廓" d="M433-13.31l8.094,7.395C543.842,87.956,676.431,139.653,814.436,139.653c9.847,0,19.827-.27,29.665-.8l9.853-.533,2.426,9.565A609.157,609.157,0,0,1,875,297.557c0,272-180.506,509.274-438.958,577l-3.042.8-3.042-.8C171.506,806.83-9,569.561-9,297.557A607.181,607.181,0,0,1,9.62,147.883l2.426-9.565,9.853.533c9.837.532,19.818.8,29.665.8,138.005,0,270.594-51.7,373.342-145.568ZM814.436,163.653c-140.416,0-275.429-51.261-381.436-144.591C326.993,112.392,191.98,163.653,51.564,163.653c-6.966,0-14-.129-21-.386A583.274,583.274,0,0,0,15,297.547C15,557.588,186.721,784.514,433,850.53c246.279-66.016,418-292.942,418-552.973a585.668,585.668,0,0,0-15.562-134.289C828.433,163.524,821.4,163.653,814.436,163.653Z" transform="translate(79.5 79.556)" fill="#4caf50"/>
    <text id="A" transform="translate(321 674)" fill="#fff" font-size="540" font-family="SIL-Hei-Med-Jian, Hei"><tspan x="0" y="0">A</tspan></text>
  </g>
</svg>
